<svg width="158" height="55" viewBox="0 0 158 55" fill="none" xmlns="http://www.w3.org/2000/svg">
<g clip-path="url(#clip0_1718_10)">
<path d="M51.9282 19.9462H57.8402V12.7042H60.6632V19.9462H64.9822C65.1272 19.6972 65.2512 19.3292 65.3562 18.8392C65.4602 18.3502 65.5452 17.8152 65.6092 17.2342C65.6732 16.6542 65.7252 16.0562 65.7662 15.4422C65.8062 14.8292 65.8342 14.2692 65.8502 13.7622C65.8662 13.2562 65.8782 12.8412 65.8862 12.5182C65.8942 12.1942 65.8982 12.0242 65.8982 12.0072V7.12916H53.9062V4.44116H68.8432V9.34316C68.8432 11.0202 68.8072 12.4802 68.7342 13.7242C68.6622 14.9682 68.5772 16.0182 68.4812 16.8722C68.3852 17.7262 68.2842 18.4022 68.1802 18.9002C68.0752 19.3982 67.9912 19.7462 67.9272 19.9452H70.7742V22.6082H51.9282V19.9462Z" fill="#910023"/>
<path d="M88.4842 23.7051V20.8171C88.1942 20.9331 87.7202 21.0581 87.0602 21.1911C86.4002 21.3241 85.5562 21.3891 84.5262 21.3891L76.9732 21.4391C76.9572 21.4391 76.8412 21.4151 76.6232 21.3651C76.4052 21.3151 76.1722 21.2081 75.9232 21.0421C75.6732 20.8761 75.4402 20.6361 75.2232 20.3201C75.0062 20.0051 74.8892 19.5821 74.8732 19.0501V10.9111H81.1472V6.78009H74.6802V4.19209H83.9702V13.6491H77.9612V18.7761H84.8382C84.8542 18.7761 84.9992 18.7721 85.2722 18.7641C85.5452 18.7551 85.8762 18.7231 86.2612 18.6641C86.6472 18.6051 87.0412 18.5151 87.4442 18.3901C87.8462 18.2661 88.1922 18.0881 88.4822 17.8551V15.8401H86.1412V13.2271H88.4822V10.8871H86.1412V8.22409H88.4822V3.94409H91.4262V23.7061L88.4842 23.7051Z" fill="#910023"/>
<path d="M106.002 20.2951C105.648 20.4111 105.202 20.5241 104.663 20.6311C104.124 20.7391 103.445 20.8101 102.624 20.8431C102.109 20.8761 101.586 20.8971 101.056 20.9061C100.525 20.9141 100.035 20.9181 99.5842 20.9181C99.3102 20.9181 99.0492 20.9181 98.8002 20.9181C98.5502 20.9181 98.3052 20.9101 98.0642 20.8941C98.0482 20.8941 97.9352 20.8691 97.7272 20.8191C97.5182 20.7691 97.2842 20.6621 97.0272 20.4961C96.7702 20.3301 96.5362 20.0811 96.3272 19.7491C96.1182 19.4181 96.0052 18.9781 95.9902 18.4311V4.06712H103.494V6.68011H99.0062V18.2291H102.987C103.164 18.2291 103.337 18.2251 103.506 18.2161C103.675 18.2081 103.848 18.1951 104.025 18.1791C104.33 18.1461 104.656 18.0961 105.002 18.0301C105.348 17.9641 105.682 17.8551 106.003 17.7071V3.94312H108.778V10.9861H110.684V3.94312H113.387V23.7051H110.684V13.6991H108.778V23.7051H106.003L106.002 20.2951Z" fill="#910023"/>
<path d="M125.258 4.34205H130.06V6.88005H128.274C128.837 7.71005 129.118 8.59805 129.118 9.54305C129.118 10.257 128.977 10.929 128.696 11.56C128.415 12.19 128.036 12.742 127.562 13.214C127.087 13.688 126.528 14.061 125.885 14.334C125.241 14.608 124.558 14.745 123.834 14.745C123.11 14.745 122.422 14.604 121.771 14.321C121.12 14.04 120.553 13.662 120.07 13.189C119.588 12.716 119.201 12.165 118.912 11.534C118.622 10.904 118.478 10.24 118.478 9.54305C118.478 9.06305 118.554 8.60205 118.707 8.16205C118.86 7.72205 119.073 7.29505 119.347 6.88005H117.368V4.34205H122.363V2.42505H125.259L125.258 4.34205ZM134.524 16.263V23.879H131.508V18.802H119.129V16.263H134.524ZM126.368 9.66805C126.368 9.30305 126.299 8.96305 126.163 8.64705C126.026 8.33205 125.841 8.05305 125.608 7.81305C125.375 7.57305 125.105 7.38605 124.799 7.25205C124.493 7.12005 124.172 7.05405 123.834 7.05405C123.496 7.05405 123.174 7.12005 122.869 7.25205C122.563 7.38605 122.298 7.57205 122.073 7.81305C121.847 8.05305 121.667 8.33205 121.53 8.64705C121.393 8.96205 121.325 9.30205 121.325 9.66805C121.325 10.016 121.393 10.344 121.53 10.65C121.667 10.958 121.847 11.227 122.073 11.46C122.298 11.692 122.564 11.875 122.869 12.007C123.174 12.14 123.496 12.206 123.834 12.206C124.172 12.206 124.493 12.14 124.799 12.007C125.105 11.875 125.374 11.693 125.608 11.46C125.841 11.228 126.026 10.958 126.163 10.65C126.299 10.344 126.368 10.016 126.368 9.66805ZM134.524 3.94305V8.32305H136.503V10.986H134.524V15.118H131.58V3.94305H134.524Z" fill="#910023"/>
<path d="M157.64 22.6092H138.795V19.9462H142.439V13.0272H145.335V19.9462H147.482V13.0272H150.378V19.9462H151.85C151.978 19.7312 152.091 19.4162 152.188 19.0012C152.284 18.5862 152.365 18.1262 152.429 17.6192C152.493 17.1132 152.55 16.5832 152.598 16.0262C152.646 15.4702 152.682 14.9352 152.706 14.4212C152.73 13.9072 152.746 13.4422 152.754 13.0272C152.762 12.6132 152.766 12.2982 152.766 12.0822V7.17916H140.773V4.44116H155.733V9.41916C155.733 11.1612 155.697 12.6582 155.625 13.9112C155.552 15.1642 155.464 16.2052 155.359 17.0342C155.254 17.8642 155.15 18.5152 155.046 18.9882C154.941 19.4612 154.857 19.7812 154.793 19.9462H157.64V22.6092Z" fill="#910023"/>
<path d="M20.3872 54.162C26.9262 51.131 32.8862 46.316 32.9472 46.269C40.2632 40.177 40.1272 29.912 40.1182 29.474V0.282959H39.4202H0.000225417V29.492C-0.00377458 29.916 -0.0287747 40.178 7.27823 46.263L7.26223 46.25C7.49123 46.453 12.9572 51.246 19.7482 54.172" fill="#910023"/>
<path d="M1.47412 1.771V2.056H38.7351V1.771H1.47412Z" fill="#E1D7C7"/>
<path d="M1.47412 9.74902V10.032H38.7351V9.74902H1.47412Z" fill="#E1D7C7"/>
<path d="M1.39014 14.511V14.794H38.6521V14.511H1.39014Z" fill="#E1D7C7"/>
<path d="M8.42012 8.52804C8.22012 8.37704 8.03012 8.23404 7.62212 7.80604C7.62212 7.80604 5.90012 5.90004 5.63912 5.61204C5.70612 5.52804 7.64212 3.16304 7.64212 3.16304L7.75612 3.04004H7.61012H6.78012L4.60412 5.73104V3.04004H4.54012H3.62012V8.72504H4.60512V5.81304L6.87712 8.34104C7.06412 8.59304 7.40312 8.72404 7.87712 8.72404H8.68812L8.49412 8.58604C8.49712 8.58604 8.42012 8.52804 8.42012 8.52804Z" fill="#E1D7C7"/>
<path d="M13.0791 2.87289C12.2121 2.86689 11.4681 3.15989 10.8641 3.73889C10.2601 4.31789 9.9541 5.02889 9.9541 5.85189C9.9541 6.71889 10.2561 7.44789 10.8551 8.01589C11.4371 8.57589 12.1561 8.85489 12.9981 8.85489C13.8391 8.85489 14.5671 8.56389 15.1651 7.98589C15.7611 7.40889 16.0661 6.67489 16.0661 5.80889C16.0661 5.01589 15.7851 4.32789 15.2311 3.76689C14.6561 3.17889 13.9311 2.87989 13.0791 2.87289ZM13.0381 8.11489C12.4461 8.11489 11.9451 7.86789 11.5581 7.37789C11.1921 6.92389 11.0061 6.38489 11.0061 5.77589C11.0061 5.14789 11.1921 4.62289 11.5581 4.21889C11.9241 3.81889 12.4151 3.61489 13.0211 3.61489C13.6151 3.61489 14.1071 3.86089 14.4891 4.34389C14.8371 4.79089 15.0141 5.34189 15.0141 5.97889C15.0141 6.59689 14.8351 7.11289 14.4811 7.50889C14.1161 7.91089 13.6281 8.11489 13.0381 8.11489Z" fill="#E1D7C7"/>
<path d="M26.825 6.00693C26.942 6.00693 28.653 6.00893 28.653 6.00893V5.26393C28.653 5.26393 26.943 5.26393 26.825 5.26393C26.825 5.15393 26.825 3.90293 26.825 3.78993C27.224 3.78093 29.061 3.78993 29.082 3.78993H29.144V3.02593L25.833 3.02393V3.08693L25.837 8.72393H29.488L29.496 7.92193C29.496 7.92193 26.944 7.92493 26.825 7.92493C26.825 7.81193 26.825 6.11993 26.825 6.00693Z" fill="#E1D7C7"/>
<path d="M34.7721 3.02393H33.8591L31.5361 8.72393H32.4161C32.4161 8.72393 33.1691 6.71093 33.1971 6.63193C33.2791 6.63193 35.1681 6.63193 35.2511 6.63193C35.2791 6.71093 36.0481 8.72393 36.0481 8.72393H37.1381L34.8131 3.02393H34.7721ZM34.9331 5.87793C34.7801 5.87793 33.6271 5.87793 33.4731 5.87793C33.5291 5.73193 34.1131 4.25593 34.2111 4.00693C34.3051 4.25693 34.8781 5.73293 34.9331 5.87793Z" fill="#E1D7C7"/>
<path d="M22.4051 7.43688C22.4051 7.43688 21.4611 6.25588 21.2211 5.95788C21.4161 5.88688 21.7591 5.73288 22.0211 5.45988C22.3071 5.16188 22.4511 4.82188 22.4511 4.45088C22.4511 4.03488 22.2931 3.68988 21.9791 3.42988C21.6531 3.16188 21.2031 3.02588 20.6371 3.02588H18.8081H18.7451V8.72388H19.7601V8.63688C19.7341 8.44588 19.7331 8.15188 19.7331 7.47588C19.7331 7.47588 19.7331 3.85688 19.7331 3.73688C20.6631 3.72688 21.0311 3.84488 21.1761 3.94688C21.3711 4.08488 21.4661 4.28588 21.4641 4.55888C21.4611 5.18788 21.0001 5.56288 20.0551 5.70588L19.9481 5.71988L21.9451 8.27788C22.1821 8.57688 22.5281 8.72488 22.9751 8.72488H23.7881L23.6211 8.60988C23.2161 8.33188 22.7711 7.90388 22.4051 7.43688Z" fill="#E1D7C7"/>
<path d="M18.8251 12.4339C18.8811 12.4339 19.6981 12.4339 19.6981 12.4339V12.0799C19.6981 12.0799 18.8821 12.0799 18.8251 12.0799C18.8251 12.0259 18.8251 11.4299 18.8251 11.3789C19.0141 11.3739 19.8901 11.3789 19.9001 11.3789H19.9281V11.0139L18.3511 11.0129V11.0429L18.3531 13.7299H20.0881L20.0991 13.3469C20.0991 13.3469 18.8831 13.3489 18.8251 13.3489C18.8251 13.2929 18.8251 12.4869 18.8251 12.4339Z" fill="#E1D7C7"/>
<path d="M5.85311 11.0149H5.52511L5.52611 12.6889C5.52611 13.1879 5.41211 13.4589 4.79611 13.4589H4.72611C4.31811 13.4589 4.11211 13.1989 4.11211 12.6889C4.11211 12.6869 4.11411 11.0149 4.11411 11.0149H3.64211L3.64111 12.6899C3.64111 12.8919 3.64911 13.0319 3.66611 13.1149C3.69411 13.2669 3.75811 13.3999 3.85611 13.5079C4.03211 13.6999 4.28611 13.7999 4.61011 13.7999H4.91511C5.23711 13.7999 5.49211 13.6999 5.66911 13.5079C5.76611 13.4009 5.82911 13.2679 5.85711 13.1149C5.87511 13.0319 5.88211 12.8919 5.88211 12.6899L5.88111 11.0139H5.85311V11.0149Z" fill="#E1D7C7"/>
<path d="M9.94396 11.0149L9.94296 11.0439C9.94296 11.0439 9.93996 12.8509 9.93996 13.0109C9.83896 12.8819 8.36896 11.0149 8.36896 11.0149H7.95996V13.7349H8.31596C8.31596 13.7349 8.31696 11.8619 8.31696 11.7009C8.41696 11.8309 9.91096 13.7339 9.91096 13.7339L10.302 13.7349V11.0149H10.27H9.94396Z" fill="#E1D7C7"/>
<path d="M12.3071 11.0149V13.7339H12.7741L12.7761 11.0149H12.7461H12.3071Z" fill="#E1D7C7"/>
<path d="M29.3131 13.7339H29.7811V13.1369V11.6139V11.0439V11.0149H29.7511H29.3101V11.6139V13.1369L29.3131 13.7339Z" fill="#E1D7C7"/>
<path d="M16.3983 11.0149C16.3983 11.0149 15.6723 12.9999 15.6203 13.1469C15.5683 13.0009 14.8553 11.0149 14.8553 11.0149H14.3223L15.3363 13.7369L15.7613 13.7359L16.8103 11.0149H16.7683H16.3983Z" fill="#E1D7C7"/>
<path d="M27.0121 12.3541L26.6471 12.1761L26.3351 12.0231C26.1061 11.9021 25.9901 11.7711 25.9901 11.6341C25.9901 11.5181 26.0431 11.4341 26.1511 11.3731C26.2321 11.3261 26.3501 11.3021 26.4941 11.3081C26.7321 11.3151 26.9761 11.3861 27.1021 11.4851L27.1501 11.5231V11.0401L27.1291 11.0331C26.9381 10.9741 26.7321 10.9441 26.5181 10.9441C26.2361 10.9441 25.9981 11.0001 25.8121 11.1081C25.5851 11.2381 25.4711 11.4281 25.4711 11.6751C25.4711 11.9271 25.5971 12.1351 25.8471 12.2961C25.8481 12.2981 25.9811 12.3621 25.9811 12.3621L26.5241 12.6301C26.7521 12.7491 26.8681 12.8901 26.8681 13.0471C26.8681 13.1661 26.8081 13.2601 26.6801 13.3371C26.5691 13.4041 26.4471 13.4381 26.3201 13.4371C26.0271 13.4341 25.7531 13.3621 25.5051 13.2181L25.4521 13.1861L25.5221 13.6621L25.5401 13.6681C25.7581 13.7491 26.0081 13.7921 26.2741 13.7921C26.6051 13.7921 26.8911 13.7051 27.0951 13.5431C27.2891 13.3871 27.3861 13.1791 27.3861 12.9261C27.3881 12.7051 27.2621 12.5151 27.0121 12.3541Z" fill="#E1D7C7"/>
<path d="M31.563 11.0039V11.0329L31.562 11.3599C31.562 11.3599 32.264 11.3599 32.32 11.3619C32.32 11.4209 32.32 13.7269 32.32 13.7269H32.788C32.788 13.7269 32.789 11.4199 32.789 11.3619C32.846 11.3619 33.564 11.3619 33.564 11.3619V11.0039H31.563Z" fill="#E1D7C7"/>
<path d="M36.6291 11.0069C36.6291 11.0069 35.9361 12.0789 35.8891 12.1529C35.8421 12.0799 35.1601 11.0049 35.1601 11.0049H35.1441H34.6191C34.6191 11.0049 35.5871 12.5289 35.5981 12.5429C35.5981 12.5599 35.5941 13.7289 35.5941 13.7289H36.0651C36.0651 13.7289 36.0671 12.5619 36.0671 12.5449C36.0781 12.5289 37.0871 11.0079 37.0871 11.0079H36.6291V11.0069Z" fill="#E1D7C7"/>
<path d="M23.6224 13.1139C23.6224 13.1139 23.1734 12.5509 23.0584 12.4089C23.1534 12.3749 23.3164 12.3019 23.4394 12.1729C23.5754 12.0309 23.6444 11.8679 23.6444 11.6919C23.6444 11.4929 23.5694 11.3299 23.4184 11.2059C23.2634 11.0779 23.0484 11.0139 22.7804 11.0139H21.9084H21.8804V13.7299H22.3624V13.6859C22.3504 13.5959 22.3504 13.4629 22.3504 13.1339C22.3504 13.1339 22.3504 11.4109 22.3504 11.3519C22.7914 11.3469 22.9674 11.4019 23.0374 11.4539C23.1324 11.5189 23.1774 11.6139 23.1764 11.7439C23.1744 12.0449 22.9534 12.2229 22.5034 12.2919L22.4534 12.2979L23.4044 13.5159C23.5164 13.6569 23.6794 13.7309 23.8924 13.7309H24.2834L24.2004 13.6719C24.0074 13.5409 23.7974 13.3379 23.6224 13.1139Z" fill="#E1D7C7"/>
<path d="M38.721 29.492C38.721 29.496 38.721 29.518 38.721 29.554C38.721 30.414 38.568 39.774 32.06 45.188C32.007 45.235 26.331 49.813 20.053 52.778C13.584 49.932 8.23902 45.251 8.18502 45.204L8.17002 45.188C1.47302 39.614 1.39502 29.865 1.39502 29.506C1.39502 29.502 1.39502 23.022 1.39502 16.312H38.721C38.721 23.017 38.721 29.492 38.721 29.492Z" fill="#E1D7C7"/>
<path d="M16.9179 48.1049H17.4299C17.5009 48.1049 17.4749 48.0419 17.4749 48.0419C17.2659 47.1179 17.3739 46.3959 17.4149 46.1829C17.4149 46.1829 17.4349 46.1199 17.3619 46.1199H16.8559C16.7869 46.1199 16.8129 46.1729 16.8129 46.1729C16.9839 46.8799 16.9179 47.7779 16.8739 48.0359C16.8739 48.0359 16.8409 48.1049 16.9179 48.1049Z" fill="#910023"/>
<path d="M18.8171 46.0628C18.0001 46.1428 18.0511 47.0978 18.0511 47.0978C18.1011 47.9628 18.9981 48.1288 18.9981 48.1288C18.7541 48.7908 18.0981 48.9898 18.0981 48.9898C17.9441 49.0488 18.0571 49.0918 18.0571 49.0918C18.2531 49.1578 18.5391 49.0428 18.5391 49.0428C19.7371 48.5058 19.7681 47.2518 19.7681 47.2518C19.7941 45.9688 18.8171 46.0628 18.8171 46.0628ZM19.1091 47.8218C18.7191 47.8378 18.6241 47.2278 18.6241 47.2278C18.5241 46.5598 18.7841 46.5208 18.7841 46.5208C19.0581 46.4348 19.1781 47.0008 19.1781 47.0008C19.3111 47.6578 19.1091 47.8218 19.1091 47.8218Z" fill="#910023"/>
<path d="M21.8409 46.838C21.8409 46.838 21.7339 46.045 20.9879 46.053C20.9879 46.053 20.2519 46.033 20.2179 47.055C20.2179 47.055 20.1909 48.131 21.1209 48.086C21.1209 48.086 22.0319 48.027 21.8409 46.838ZM21.1329 47.744C20.7809 47.871 20.7419 47.152 20.7419 47.152C20.7039 46.464 20.9849 46.396 20.9849 46.396C21.2679 46.328 21.3469 46.832 21.3469 46.832C21.4749 47.613 21.1329 47.744 21.1329 47.744Z" fill="#910023"/>
<path d="M22.0601 48.359C22.8471 48.515 23.0541 47.957 23.0541 47.957C23.3061 47.168 22.3181 47.131 22.3181 47.131L22.4761 46.111C22.4761 46.111 23.4681 46.158 23.7331 46.027C23.7331 46.027 23.7951 45.9839 23.7601 46.1339C23.7601 46.1339 23.7051 46.47 23.3821 46.497L22.8941 46.54L22.8481 46.823C22.8481 46.823 23.6901 46.8049 23.6751 47.7159C23.6751 47.7159 23.6441 48.419 22.8211 48.591C22.8211 48.591 22.4361 48.6789 21.9921 48.4949C21.9921 48.4949 21.9231 48.464 21.9601 48.409C21.9601 48.409 21.9931 48.346 22.0601 48.359Z" fill="#910023"/>
<path d="M19.1588 29.302C19.2218 29.224 19.3028 29.281 19.3688 29.302C19.4328 29.32 19.4348 29.443 19.4708 29.506C19.4908 29.552 19.6128 29.676 19.6248 29.715C19.7248 30.171 19.6248 30.77 19.4178 31.121C19.3598 31.225 19.2658 31.281 19.1998 31.283C19.1118 31.293 19.0848 31.166 19.0538 31.121C18.9228 30.935 19.0218 30.496 19.0538 30.29C19.0888 30.027 18.8828 29.602 19.0138 29.413C19.0138 29.413 19.1568 29.302 19.1588 29.302Z" fill="#910023"/>
<path d="M12.9342 29.7828C13.0452 29.7528 13.2052 29.8038 13.2732 29.7828L13.4222 29.7238C13.5942 29.6108 13.7662 29.6428 13.9422 29.6608C14.0302 29.6688 14.2892 29.7818 14.3762 29.7868C14.5142 29.8018 15.1692 29.8718 15.8662 29.9708C15.8602 29.9688 16.2382 29.9228 16.1422 29.8178C16.2022 29.8858 16.1312 29.7618 15.9892 29.7138L15.9412 29.6608C15.9462 29.6548 15.8192 29.5548 16.0452 29.4778C15.9602 29.5038 16.1922 29.4468 16.2372 29.3948C16.3272 29.2998 16.1952 29.1948 16.1952 29.1948C15.8662 29.0838 15.4962 29.2958 15.0012 29.2438C14.7572 29.2228 14.4122 29.0838 14.0692 29.1408C13.6942 29.2068 13.1452 29.4188 12.8832 29.6208C12.8822 29.6228 12.7582 29.8408 12.9342 29.7828Z" fill="#910023"/>
<path d="M17.0999 27.086C17.4359 27.066 17.4519 27.414 17.4599 27.38C17.4209 27.628 16.81 27.65 16.665 27.845C16.238 28.401 16.4149 28.933 15.4049 28.991C15.4049 28.991 15.2019 28.943 15.2809 28.859C15.3439 28.793 15.5899 28.728 15.6789 28.672C15.8089 28.597 15.7979 28.386 15.8849 28.257C15.9019 28.226 16.0159 28.187 16.0449 28.156C16.3279 27.775 16.3599 27.386 16.8599 27.157C16.8799 27.146 17.0619 27.095 17.0999 27.086Z" fill="#910023"/>
<path d="M20.3332 25.5889C20.4482 25.5239 20.5622 25.5889 20.6372 25.6569C20.6802 25.6869 21.0522 26.5739 21.0682 26.6619C21.1152 26.9829 21.1512 27.7249 21.0642 27.9659C20.9402 28.2969 20.6322 28.5529 20.6992 29.1429C20.7352 29.4909 20.8872 29.7589 21.0332 30.0589C21.0522 30.1109 21.2032 30.4049 21.2112 30.4629C21.2682 30.7809 21.0942 31.1929 21.0682 31.4489C20.9902 32.0859 21.2462 32.6679 21.1442 33.2749C21.1012 33.5409 21.0162 33.6709 20.8732 33.8339L20.7582 33.9319C20.7252 33.9959 20.6692 34.0179 20.6112 34.0609L20.5402 34.1329C20.4322 34.1579 20.4212 34.2209 20.3772 34.2249C20.1042 34.2879 20.0482 34.1269 20.0652 34.1639C19.7882 33.3829 20.2532 32.4709 20.0142 31.7149C19.9592 31.5429 19.7552 31.3689 19.7272 31.1839C19.6332 30.5089 20.2662 30.1519 20.2572 29.6969C20.2572 29.3739 19.8302 28.9499 19.7352 28.6339C19.6132 28.2579 19.5342 27.5399 19.6992 27.0729C19.7372 26.9609 19.8832 26.7679 19.9242 26.6169C20.0022 26.3239 20.1212 26.0849 20.1632 25.8899C20.1772 25.8299 20.2142 25.7449 20.2472 25.6879C20.2572 25.6689 20.3132 25.5999 20.3332 25.5889Z" fill="#910023"/>
<path d="M28.4038 23.9749C28.8598 23.9229 29.0648 24.1009 28.8508 24.4929L28.7618 24.5769C28.7238 24.5899 28.6038 24.7489 28.5788 24.7709C28.3578 24.9339 28.1498 25.0339 27.9818 25.2409C27.9238 25.3099 27.8768 25.4849 27.8048 25.5459C27.6908 25.6289 27.2538 25.8209 27.1418 25.8409C26.5888 25.9299 25.8368 25.3789 25.7558 25.0599C25.6828 24.7859 25.7558 24.5199 25.8728 24.4569C26.0608 24.3619 26.5518 24.4109 26.7198 24.3939C27.1448 24.3629 27.4138 24.3859 27.7408 24.2729C27.9378 24.2079 28.1648 24.0019 28.4038 23.9749Z" fill="#910023"/>
<path d="M26.0462 23.789C26.0462 23.789 26.3062 23.898 26.5382 23.842C26.7042 23.802 27.0072 23.663 27.1602 23.635C27.2542 23.613 27.3842 23.66 27.4742 23.635C27.7262 23.559 28.1922 23.064 27.6352 23.011C27.4322 22.991 26.8312 23.219 26.6422 23.271C26.4542 23.32 26.3372 23.352 26.1812 23.432C26.1392 23.457 25.9242 23.633 25.9502 23.603C25.9502 23.603 25.8082 23.722 26.0462 23.789Z" fill="#910023"/>
<path d="M22.0691 24.725C21.9061 24.703 21.9061 24.429 21.4961 24.517C21.2111 24.578 21.1331 24.996 20.7171 24.987L20.5101 24.885C20.3291 24.841 20.2001 24.906 20.0411 24.826C19.3091 24.483 20.6091 22.727 21.0291 22.752C21.0511 22.752 21.2681 22.83 21.2941 22.855C21.4241 22.968 21.4241 23.459 21.5471 23.635C21.6401 23.758 21.7881 23.749 21.9141 23.842C22.0471 23.943 22.2981 24.287 22.3281 24.47C22.3281 24.47 22.3961 24.768 22.0691 24.725Z" fill="#910023"/>
<path d="M28.8291 38.9159C28.8381 38.9059 28.8381 38.9059 28.8291 38.9159Z" fill="#910023"/>
<path d="M34.6611 23.4729C34.6611 23.4729 34.6611 23.4779 34.6611 23.4829L34.6631 23.4839C34.6611 23.4779 34.6611 23.4729 34.6611 23.4729Z" fill="#910023"/>
<path d="M28.1021 22.9759C28.1051 22.9679 28.1101 22.9579 28.1131 22.9509C28.0991 22.9779 28.0971 22.9809 28.1021 22.9759Z" fill="#910023"/>
<path d="M24.9392 31.8499C24.9392 31.8499 24.9332 31.8499 24.9312 31.8479C24.9392 31.8539 24.9422 31.8539 24.9392 31.8499Z" fill="#910023"/>
<path d="M18.9172 24.8539C18.6342 25.0109 18.0152 25.2559 17.8852 25.5309C17.8132 25.6749 17.8132 25.8009 17.7552 25.9719C17.7472 25.9919 17.6712 26.0209 17.6472 26.0739C17.3452 26.0739 17.0802 26.0559 16.8172 26.1269C16.6122 26.1849 16.3182 26.4009 16.0912 26.4399C15.6292 26.5199 15.2772 26.3149 14.8442 26.3869C14.6512 26.4199 14.5282 26.6209 14.3692 26.6999C14.2342 26.7659 14.1792 26.7659 14.0722 26.8629L13.9772 26.9719C13.9612 27.0149 13.9142 27.1199 13.8852 27.1679C13.7912 27.3109 13.7532 27.4539 13.7302 27.6059C13.7082 27.7519 13.6222 28.1079 13.5442 28.2539C13.5062 28.3249 13.3112 28.4849 13.2832 28.5499C13.2682 28.5939 13.2252 28.6369 13.2832 28.7049C13.2152 28.6319 13.2292 28.7759 13.6032 28.7959C14.0152 28.8069 14.9112 28.5299 14.9112 28.5299L15.3422 28.2979C15.4252 28.2349 15.7592 27.9809 15.8342 27.8939C16.1462 27.5059 16.9852 26.0879 17.6372 26.4589L17.7552 26.5419C17.9112 26.8059 17.7142 27.5529 17.5972 27.7229L17.4512 27.8999C17.3342 27.9369 17.2532 28.2389 17.2362 28.3799C17.2082 28.6049 17.2732 28.8069 17.2902 28.9299C17.3242 29.1999 17.3522 29.5379 17.1862 29.8719C17.1502 29.9349 17.0572 30.0509 17.0822 30.2309C17.1132 30.4369 17.4022 30.5839 17.4432 30.7519C17.4692 30.8379 17.5442 30.8519 17.4432 31.0119C17.3882 31.1019 17.1512 31.2479 17.0822 31.3249C16.9882 31.4229 17.0702 31.5709 17.1322 31.6299C17.3112 31.7919 17.4612 31.8139 17.5992 31.9989C17.7992 32.2549 17.7872 32.4759 18.2252 32.5189C18.5692 32.5499 19.0552 32.5699 18.8502 32.1029L18.7472 31.9269C18.6242 31.6199 18.4102 31.3509 18.3812 31.0129C18.3412 30.5879 18.6842 30.3709 18.5402 30.0269C18.4242 29.7629 17.9052 29.7929 17.8622 29.4519C17.8402 29.2599 18.0342 28.8529 18.0712 28.6699C18.1112 28.4199 18.0442 28.2639 18.1252 28.0469C18.1772 27.8949 18.4042 27.7219 18.4302 27.5309C18.4772 27.1869 18.2142 26.9709 18.3282 26.5949C18.3862 26.4029 18.6882 26.4229 18.7992 26.2799C18.9432 26.0889 18.8632 25.8229 18.9522 25.5529C18.9612 25.5209 19.0362 25.3599 19.0502 25.3309C19.0422 25.3189 19.1102 24.9829 19.1102 24.9829C19.0642 24.7739 18.9342 24.8609 18.9172 24.8539ZM15.6252 27.5989C15.3352 27.6639 15.3082 27.0429 14.6072 27.2859C14.5732 27.2999 14.3752 27.4799 14.3582 27.5099C14.2772 27.6949 14.3212 28.1669 14.2292 28.2099C14.2292 28.2099 13.9572 28.2779 14.0102 27.9349C14.0942 27.3899 14.1992 27.2869 14.4762 27.0579C14.5122 27.0259 14.6162 26.9489 14.6702 26.9369C15.0002 26.8629 15.6082 26.9889 15.7182 27.1559C15.8122 27.2919 15.6132 27.6009 15.6252 27.5989Z" fill="#910023"/>
<path d="M34.661 23.4819C34.613 23.2269 33.923 23.2459 33.644 22.9069C33.54 22.7709 33.617 22.6979 33.644 22.5959C33.724 22.2989 34.353 22.4749 34.501 22.2109C34.561 22.1009 34.582 21.7729 34.541 21.7299C34.146 21.2459 33.312 21.4759 32.722 21.2419C32.44 21.1239 32.086 20.8889 31.787 20.7769C31.412 20.6329 31.123 20.6119 30.748 20.4639C30.663 20.4269 30.497 20.3049 30.407 20.2689C29.99 20.1019 29.66 20.0689 29.244 19.8899C29.194 19.8709 29.069 19.7999 29.014 19.7769C28.847 19.7069 28.796 19.6959 28.618 19.6309C27.975 19.3969 27.158 19.1929 26.226 19.2509C25.818 19.2719 25.349 19.1979 24.719 19.3759C24.502 19.4319 24.198 19.6189 23.994 19.6839C23.849 19.7269 23.725 19.7519 23.596 19.8089C23.415 19.8819 23.255 19.9889 23.006 20.0479C22.292 20.2059 21.339 20.0299 20.614 20.1519C19.988 20.2539 19.624 20.6499 19.108 20.8279C18.95 20.8809 18.886 20.8639 18.73 20.9199C18.64 20.9519 18.426 21.0069 18.353 21.0489C18.139 21.1579 17.998 21.1939 17.755 21.2949C17.634 21.3499 17.488 21.4609 17.371 21.5159C17.196 21.6039 17.187 21.6259 17.042 21.7319L16.924 21.8169C16.924 21.8169 16.67 22.0389 16.64 22.0789C16.539 22.1839 16.442 22.3309 16.355 22.4389C16.091 22.7479 15.694 23.1339 15.365 23.3729C15.246 23.4599 15.162 23.4399 15.056 23.5309C14.933 23.6269 14.823 23.7279 14.704 23.8179C14.432 24.0129 14.159 24.1419 13.86 24.3069L13.667 24.4359C13.412 24.6029 13.423 24.6689 13.159 24.8359C12.988 24.9539 12.912 25.1289 12.755 25.2649C12.65 25.3439 12.531 25.5989 12.461 25.7069C12.134 26.1859 12.012 26.8909 11.778 27.4819C11.709 27.6499 11.142 28.4699 11 28.5219L10.896 28.6189C10.814 28.6889 10.814 28.7089 10.741 28.7799C10.574 28.9289 10.404 29.0169 10.275 29.1969C10.171 29.3399 10.107 29.5049 10.011 29.6629C9.86301 29.9059 9.61701 30.1759 9.49301 30.4419C9.44301 30.5409 9.40701 30.6409 9.37101 30.7349C9.35901 30.7489 9.34901 30.7639 9.34501 30.7639C9.28201 30.8459 9.17201 31.1799 9.17201 31.1799C9.05701 31.4499 8.78301 31.5999 8.42001 32.1159C7.99501 32.1469 6.53401 31.7759 5.54001 31.3049C5.76301 31.5529 6.87801 32.3029 8.18401 32.4479C8.09701 32.5729 8.09101 32.7039 7.93401 32.7469C7.41201 32.8739 6.50301 32.5889 5.28201 32.1629C5.35301 32.3309 6.42801 32.9639 8.01501 33.0589C7.77901 33.3359 5.59801 33.2659 3.89301 32.8029C3.82801 32.9809 6.02501 33.4689 7.23201 33.4509C7.02501 33.5559 6.48201 33.6809 6.13401 33.8059C5.58401 33.7449 4.81701 33.6479 4.66801 33.5929C4.70201 33.7039 5.24601 33.8509 5.69501 33.9559C5.26401 34.1099 4.62201 34.1999 4.37301 34.2509C4.55601 34.2999 5.25001 34.1869 5.98101 34.0109C6.62201 34.1339 7.60201 34.2609 8.14201 34.2359C8.00801 34.3049 7.50001 34.6329 7.10001 34.8669C6.07601 34.9629 4.96101 35.0489 4.72201 35.0779C4.85701 35.0989 5.75501 35.1149 6.71201 35.0899C6.12801 35.4319 5.50401 35.7909 5.20401 35.9259C5.64701 35.8129 6.44101 35.5099 7.25201 35.0739C8.05601 35.0449 8.81001 34.9799 9.12501 34.8669C9.01701 35.1009 8.36701 36.2239 7.76301 36.4819C8.02301 36.4389 8.86401 36.2029 9.37001 34.9329C9.55001 35.0089 9.75501 35.0539 9.99401 35.0699C10.129 35.2709 10.445 35.7909 11.046 35.8179C11.168 36.1679 12.281 37.9799 13.845 37.2769C13.394 37.0289 13.121 36.7729 12.897 36.0499C13.591 36.0069 15.428 37.0149 15.981 39.1909C15.546 39.0459 15.002 38.7929 14.944 38.5759C14.824 39.0779 14.746 39.7279 15.86 40.8509C15.881 41.0909 15.878 41.3799 15.929 41.6479C16.113 41.8409 16.325 41.9859 16.522 42.1519C16.536 42.4679 16.491 42.8999 17.321 43.1439C17.603 43.3779 18.51 43.6259 18.642 43.7809C18.913 43.8669 19.313 43.8879 19.606 43.8669C19.606 43.8669 20 43.8029 20.105 43.6499C20.301 43.6399 20.567 43.6339 21.772 42.3509C22.024 42.0479 21.772 40.3899 21.833 39.9879C21.951 39.6969 22.003 39.4269 22.165 39.0679C22.165 39.0679 22.328 38.7109 22.634 38.5699C22.656 38.5579 22.674 38.5579 22.7 38.5519C23.392 38.3939 24.295 39.0459 24.722 39.2259C24.877 39.2899 24.959 39.2529 25.083 39.3329C25.145 39.3639 25.23 39.5029 25.294 39.5439C25.446 39.6259 25.593 39.6009 25.764 39.6919C26.013 39.8309 26.518 40.5589 26.957 40.4769C27.093 40.4439 27.201 40.1309 27.318 40.0569C27.525 39.9319 27.811 39.9439 27.994 39.7969C28.204 39.6369 28.118 39.4489 28.15 39.2249C28.15 39.2149 28.247 39.1099 28.256 39.0669C28.359 39.0569 28.584 39.0649 28.725 39.0219C28.744 39.0119 28.803 38.9439 28.828 38.9169C28.918 38.8249 28.852 38.7259 28.828 38.6489C28.798 38.5649 28.585 38.4649 28.518 38.3929C28.362 38.2389 28.095 38.0119 27.995 37.8249C27.948 37.7309 28.008 37.7099 27.941 37.6119C27.873 37.5049 27.691 37.3909 27.635 37.2509C27.434 36.8059 27.515 35.8119 27.427 35.6729C27.344 35.5399 27.242 35.5559 27.16 35.4309C26.988 35.1559 27.2 34.2769 27.216 33.9269C27.232 33.6439 26.956 33.8199 26.956 33.8199C26.729 34.3809 26.754 34.6309 26.697 35.4309C26.688 35.5029 26.592 35.9309 26.592 36.0069C26.589 36.2839 26.754 36.7589 26.642 37.0969C26.606 37.2079 26.38 37.4169 26.072 37.4099C25.955 37.4099 25.373 37.2579 25.241 37.2049C25.215 37.1869 25.092 37.0489 25.082 37.0429C24.793 36.8159 24.733 37.0289 24.721 37.1449C24.712 37.2639 24.761 37.2859 24.784 37.3539C24.794 37.4219 24.911 37.6699 24.901 37.6919C24.896 37.7169 24.795 37.9869 24.256 37.6709C23.848 37.4269 23.446 36.7449 23.423 36.6299C23.367 36.3699 23.447 36.1709 23.497 36.0809C23.701 35.8969 23.942 36.1529 24.145 36.2629C24.197 36.2899 24.321 36.3759 24.383 36.3919C24.503 36.4119 24.694 36.3709 24.72 36.3709C25.509 36.3239 26.325 36.6089 26.467 36.0779C26.553 35.7459 26.227 35.5679 26.17 35.4299C26.095 35.2619 26.133 35.2519 26.091 35.0649C26.084 35.0509 26.029 34.9319 26.018 34.9189C25.936 34.7759 25.995 34.6569 25.915 34.5029C25.832 34.3329 25.598 34.2279 25.501 34.0849C25.366 33.8939 25.366 33.6509 25.186 33.5129C24.92 33.2939 23.855 32.9779 23.731 32.7299C23.529 32.3369 23.778 31.6149 23.68 31.1249C23.626 30.8339 23.533 30.6759 23.356 30.4969C23.289 30.4279 23.256 30.3259 23.281 30.2309C23.326 30.0569 23.418 30.1049 23.47 29.7179C23.504 29.5019 23.451 29.2649 23.47 29.0419C23.472 29.0069 23.573 28.6649 23.579 28.6259C23.626 28.0459 23.551 27.4389 23.422 27.0199C23.361 26.8159 23.172 26.6379 23.109 26.4439C23.054 26.2809 23.121 26.1879 23.054 26.0249C23.003 25.8829 22.821 25.7839 22.748 25.6669C22.607 25.4609 22.649 25.1079 22.433 24.9899C22.275 24.9009 22.22 25.0239 22.228 24.9899C22.175 25.1799 22.186 25.3659 22.28 25.6119C22.317 25.7189 22.511 25.8739 22.543 25.9759C22.584 26.1689 22.511 26.4009 22.543 26.6009L22.644 26.8119C22.724 27.3319 22.439 28.0249 22.228 28.3149C22.079 28.5069 21.633 28.7549 21.606 29.0429C21.582 29.2239 21.657 29.2279 21.702 29.3059C21.769 29.4009 21.983 29.5259 22.018 29.6159C22.041 29.6849 22.068 29.6699 22.095 29.7389L22.121 29.8799C22.157 30.2419 21.682 30.3269 21.913 30.7609C21.978 30.8859 22.202 30.8859 22.327 30.9659C22.563 31.1139 23.011 31.5379 23.054 31.8999C23.075 32.0599 23.054 32.8939 23.007 32.9939C22.9 33.2259 22.316 33.3139 22.382 33.7749C22.455 34.2749 23.774 34.1319 24.145 34.3959C24.321 34.5169 24.357 34.7849 24.411 35.0249C24.441 35.1519 24.312 35.1969 24.255 35.2279C24.114 35.3099 24.014 35.2459 23.838 35.2829C23.408 35.3689 22.724 35.5619 22.544 35.9079C22.318 36.3059 22.585 36.8509 22.488 37.3079C22.394 37.7219 22.083 38.2239 21.861 38.5579C21.722 38.7609 21.548 38.9599 21.482 39.2489C21.329 39.8619 21.435 40.5849 21.392 41.3039L21.383 41.3079C21.383 41.3079 21.41 41.6829 21.159 41.9539C20.873 42.2679 19.884 43.1919 19.182 43.1919C18.922 43.1839 18.816 43.0999 18.532 42.8929C18.352 42.8769 17.941 42.7799 17.703 42.5319C17.629 42.3989 16.853 41.6119 17.341 41.3889C17.799 41.1779 18.541 41.6369 18.884 41.8599C19.023 41.8599 20.025 41.9089 21.09 40.5119C21.041 39.7819 20.98 38.8459 20.901 38.6759C20.79 38.3169 20.184 37.6839 20.055 37.3069C19.975 36.9959 19.83 36.3949 19.924 35.9729C19.883 35.5079 19.59 35.4069 19.466 35.0279C19.433 34.9339 19.393 34.8559 19.371 34.8289C19.335 34.6919 19.309 34.5709 19.225 34.4439C19.04 34.1629 18.86 34.1019 18.691 33.8249C18.514 33.5379 18.545 33.1799 18.274 32.9929C18.124 32.8929 17.923 32.8839 17.756 32.7859C17.635 32.7139 17.481 32.5379 17.34 32.4749C17.175 32.4009 17.131 32.3809 16.964 32.3069C16.882 32.2659 16.735 32.2019 16.664 32.1639C16.591 32.1209 16.518 32.1579 16.456 32.1089C16.255 31.9369 16.4 31.7849 16.3 31.4879C16.291 31.4529 16.212 31.4509 16.194 31.3839C16.111 31.3629 15.965 31.2279 15.853 31.3079C15.698 31.4229 15.654 31.3899 15.556 31.6259C15.501 31.7839 15.396 32.2449 15.289 32.3559C15.196 32.4669 15.079 32.6219 14.931 32.7249C14.793 32.7989 14.672 32.7889 14.672 32.7889L14.284 32.8459L14.09 33.1449C14.09 33.1449 13.878 33.1159 13.766 33.1159C13.734 33.1899 13.478 33.3859 13.398 33.4539C13.069 33.6469 12.867 33.5129 12.844 33.4419C12.829 33.3779 12.724 33.2489 12.947 33.1159C13.709 32.9029 14.643 31.8819 14.721 31.6629C14.625 31.8109 13.047 32.6829 12.756 32.7999C13.07 32.0579 15.001 30.9659 15.118 30.8389C14.625 30.9129 12.978 31.9069 12.692 32.3469C12.419 32.7899 12.096 32.6669 11.794 32.6539C11.499 32.6439 11.523 32.9609 11.509 33.1559C11.505 33.3449 11.358 33.7319 11.483 33.8019C11.685 33.9759 12.216 33.2689 12.385 33.6479C12.478 34.0719 11.384 34.0519 11.394 34.3939C11.341 34.5759 12.403 34.6359 12.598 34.8279C12.258 35.0779 11.422 35.1559 11.174 35.1679C11.019 35.1819 10.88 35.1759 10.8 35.1619C10.661 35.1389 10.481 35.0139 10.321 34.7539C10.019 34.2049 10.53 33.8259 10.538 33.6859C10.55 33.5379 10.481 33.6179 10.471 33.3869C10.462 33.1569 10.722 33.1169 10.787 33.0709C10.86 33.0199 10.768 32.9539 10.786 32.7309C10.92 32.2249 11.744 31.6429 11.534 31.4809C11.342 31.3789 10.942 31.8209 10.787 32.0199C10.22 32.7519 9.55901 32.5219 9.33401 32.5319C8.83401 32.5569 8.92301 32.0119 9.27201 32.0519C9.67501 31.9659 9.64501 31.4109 9.93201 31.4679C10.024 31.8739 9.57301 31.9309 9.78401 32.0209C10.072 32.1339 10.1 31.7589 10.191 31.6009C10.276 31.4409 10.682 31.0929 10.636 31.0049C10.519 30.9639 10.219 31.1769 10.084 31.2819C9.75501 30.4609 10.584 29.8349 10.626 29.5919C10.898 29.1629 12.419 28.6129 12.446 27.9599L12.488 27.9249C12.488 27.9249 12.515 27.9069 12.562 27.9859C12.562 27.9859 12.562 27.9859 12.565 27.9859C12.576 28.0239 12.583 28.0659 12.594 28.1099C12.597 28.1619 12.591 28.2119 12.591 28.2119L12.599 28.1489C12.61 28.2509 12.605 28.3389 12.61 28.3179V28.4169C12.624 28.4769 12.701 28.5049 12.714 28.5109C12.746 28.5049 12.83 28.4799 12.908 28.3899C12.921 28.3759 13.01 28.2919 13.01 28.2729C13.155 28.1639 13.182 28.1499 13.285 28.0029C13.546 27.6229 13.042 27.0669 13.182 26.5519C13.278 26.2109 13.596 25.8079 13.596 25.8079C13.683 25.6149 13.546 25.6159 13.546 25.6159C13.345 25.5789 13.206 25.7939 13.235 25.7649C12.978 26.0079 12.901 26.1249 12.714 26.4479C12.714 26.4479 12.557 26.5899 12.511 26.3949C12.421 26.0739 12.785 25.4399 12.9 25.3609C13.114 25.2149 13.33 25.1489 13.599 25.0409C13.733 24.9849 13.933 24.7679 14.068 24.7319C14.134 24.7099 14.205 24.6959 14.274 24.7319C14.274 24.7319 14.375 24.8059 14.328 25.0409C14.328 25.0409 14.226 25.3209 14.261 25.4279C14.284 25.4959 14.274 25.5639 14.432 25.5639C14.805 25.5699 15.64 25.4829 15.884 25.3509C15.94 25.3299 15.993 25.2479 16.044 25.2019C16.12 25.1219 16.101 25.0069 16.044 24.9949L15.884 24.9419C16.006 24.9219 15.181 24.9179 15.313 24.8929C15.168 24.9169 15.508 24.5079 15.468 24.3139C15.452 24.2219 15.289 24.1829 15.26 24.1089C15.244 24.0639 15.156 23.9949 15.26 23.9529L15.381 23.9009C15.42 23.8739 15.464 23.8249 15.521 23.7969C15.781 23.6769 16.251 23.7349 16.457 23.7969C16.478 23.8099 16.814 23.9009 16.925 24.2149C16.954 24.3009 16.977 24.4009 17.029 24.4779C17.186 24.6909 17.644 24.7679 17.913 24.5139C17.966 24.4639 18.032 24.3429 18.071 24.2709C18.338 23.6589 17.943 23.2429 17.443 23.0719C17.243 22.9999 16.917 22.9799 16.665 22.9159C16.487 22.8659 16.594 22.7169 16.645 22.6729L16.72 22.6059C16.818 22.4599 17.127 22.3279 17.24 22.2949C17.516 22.1899 17.786 22.0859 18.175 22.2439C18.233 22.2639 18.385 22.3829 18.429 22.3939C18.724 22.4689 18.836 22.4899 19.109 22.3459C19.218 22.2939 19.203 22.2799 19.212 22.2459C19.309 21.9679 19.116 21.7819 19.122 21.8119C19.064 21.4369 20.133 21.9009 20.3 21.6649C20.457 21.4509 20.355 21.0419 20.562 20.8879C20.584 20.8739 20.708 20.7869 20.717 20.7849C20.916 20.7429 21.09 20.8229 21.248 20.8879L21.417 20.9689C21.754 21.1059 22.047 21.1809 22.229 21.4589C22.343 21.6389 22.323 21.9009 22.434 22.0849C22.482 22.1629 22.592 22.2129 22.65 22.2939C22.699 22.3499 22.79 22.3879 22.852 22.4229C22.949 22.4839 22.986 22.5069 23.109 22.5479C23.202 22.5839 23.335 22.7239 23.422 22.7599C23.739 22.8889 24.119 22.8699 24.462 22.8629C24.666 22.8539 24.787 22.9729 24.98 22.9159C25.079 22.8819 25.051 22.7069 24.989 22.6319C24.865 22.4749 24.771 22.5129 24.565 22.3949C24.484 22.3459 24.383 22.1869 24.305 22.1389C24.067 21.9849 23.723 21.9629 23.58 21.7199C23.561 21.6829 23.534 21.6139 23.53 21.5699L23.471 21.4609C23.183 20.8779 23.093 20.5319 23.369 20.4229C23.541 20.3589 23.917 20.3939 24.101 20.3179C24.143 20.2969 24.222 20.1799 24.255 20.1619C24.667 19.9649 25.441 19.7369 25.868 19.9549C25.995 20.0149 25.868 20.3479 25.916 20.4749C25.942 20.5319 26.038 20.6279 26.146 20.6609C27.039 20.9009 27.93 20.8609 28.584 21.1689C28.975 21.3549 29.273 21.6429 29.625 21.9459C29.927 22.2149 29.569 22.5189 29.88 22.6099C29.667 22.6379 29.487 22.6609 29.45 22.5509C29.439 22.5229 29.376 22.4259 29.346 22.3969C29.113 22.1759 28.841 21.8329 28.517 21.7219C28.35 21.6609 28.276 21.7139 28.098 21.6679L27.89 21.5979C27.665 21.5349 27.647 21.5559 27.428 21.5089C27.329 21.4889 27.106 21.3709 27.009 21.3599C26.568 21.2939 26.321 21.4709 25.917 21.3599C25.731 21.3049 25.49 21.0099 25.34 20.9299C25.154 20.8249 24.982 20.7879 24.773 20.7199C24.689 20.6969 24.645 20.6969 24.581 20.7309C24.467 20.7969 24.505 20.9009 24.565 20.9849C24.599 21.0299 24.628 21.1089 24.669 21.1329C24.816 21.2399 25.109 21.2399 25.189 21.3929C25.418 21.8469 25.082 22.0069 25.033 22.1409C25.009 22.2229 24.944 22.2869 25.033 22.3969C25.081 22.4579 25.185 22.5289 25.243 22.5509C25.454 22.6419 25.62 22.6079 25.816 22.7089C25.955 22.7819 26.103 23.0339 26.283 23.0739C26.7 23.1649 26.798 22.8559 27.009 22.8119C27.311 22.7439 27.496 22.9029 27.842 22.8119C27.956 22.7789 28.02 22.6429 28.1 22.6069C28.299 22.4999 28.497 22.4859 28.621 22.5499C28.621 22.5499 28.755 22.6139 28.568 22.7079C28.46 22.7679 28.369 22.7679 28.257 22.8219C28.181 22.8639 28.114 22.9689 28.103 22.9849C28.067 23.0579 28.041 23.1679 28.045 23.1759C28.077 23.2329 28.122 23.2659 28.151 23.2799C28.513 23.4059 28.882 23.1719 29.192 23.1249C29.422 23.0869 30.067 23.1249 30.252 23.2669C30.252 23.2669 30.424 23.3009 30.314 23.6129C30.244 23.7999 29.949 23.9369 29.836 24.0949C29.77 24.1849 29.698 24.3579 29.631 24.4449C29.521 24.5869 29.503 24.5819 29.391 24.7129L29.315 24.8219C29.27 24.9579 28.74 25.4049 28.641 25.5549C28.581 25.6449 28.553 25.7389 28.49 25.8349C28.396 25.9709 28.326 25.9929 28.278 26.0759C28.125 26.2949 27.826 26.7399 27.58 26.8509C27.47 26.8989 27.315 26.8469 27.162 26.8179C27.058 26.7879 26.944 26.5949 26.854 26.5539C26.491 26.3879 26.086 26.4349 25.766 26.2419C25.606 26.1459 25.458 25.8659 25.344 25.7209C25.27 25.6239 25.201 25.4499 25.085 25.4079C24.9 25.3429 24.448 25.4019 24.36 25.5639C24.189 25.8899 24.635 26.7299 24.673 27.0749C24.699 27.3689 24.565 27.5019 24.673 27.7479C24.723 27.8729 24.918 27.9049 24.982 28.0089C25.264 28.4499 25.019 29.0769 25.084 29.6709C25.112 29.8549 25.221 30.0829 25.188 30.3479C25.143 30.7629 24.611 31.1199 24.827 31.7509C24.834 31.7779 24.935 31.8509 24.941 31.8579C25.024 31.8989 25.155 31.8789 25.243 31.8559C25.416 31.7929 25.583 31.4499 25.765 31.3359C25.783 31.3149 25.842 31.2849 25.874 31.2849C25.894 31.2499 25.943 31.2459 25.972 31.2319C26.047 31.1749 26.078 31.1729 26.124 31.0759C26.197 30.9099 26.173 30.7419 26.228 30.5009C26.282 30.3039 26.466 29.9489 26.489 29.7229C26.552 29.0849 26.092 27.8429 26.422 27.6359C26.548 27.5579 26.674 27.4079 26.893 27.3739C26.989 27.3509 27.303 27.4469 27.439 27.4439C27.437 27.4469 27.435 27.4489 27.435 27.4489C27.267 27.8459 27.89 28.8859 27.841 29.4619C27.719 30.8589 26.807 31.6309 26.019 32.3749C25.928 32.4649 26.005 32.5639 26.073 32.6329C26.229 32.7829 26.608 32.7169 26.805 32.6879C27.089 32.6269 27.218 32.4999 27.428 32.4279C27.505 32.3969 27.599 32.4459 27.686 32.4279C27.9 32.3689 28.083 32.0779 28.206 31.9029C28.206 31.9029 28.46 31.6299 28.514 31.9889L28.519 32.0099C28.519 32.3479 28.46 32.7169 28.519 33.0449C28.581 33.4379 29.292 34.6089 29.663 34.6619C30.528 34.7869 29.642 33.6969 29.607 33.6209C29.465 33.2929 29.328 32.7029 29.348 32.2689C29.352 32.1129 29.484 31.7899 29.503 31.6419C29.511 31.5679 29.473 31.3959 29.503 31.3349C29.571 31.1959 30.029 31.1529 30.128 30.9679C30.154 30.9169 30.116 30.8219 30.128 30.7629C30.149 30.6379 30.24 30.4079 30.337 30.2969C30.4 30.2209 30.488 30.1759 30.597 30.2969C30.686 30.3969 30.709 30.6299 30.858 30.7979L30.987 30.9389C31.14 31.0389 31.388 30.9079 31.322 30.9209C31.483 30.8779 31.465 30.7139 31.531 30.6549C31.543 30.6469 31.633 30.6069 31.633 30.6069C32.009 30.2199 31.176 29.8719 31.165 29.5119C31.157 29.1159 31.254 28.6529 31.117 28.2139C31.083 28.1029 30.879 27.9469 30.855 27.8509C30.799 27.6009 30.93 27.3339 30.959 27.1759C31.017 26.8439 30.903 26.3319 31.013 26.1869C31.075 26.1059 31.176 26.0469 31.376 26.0809C31.507 26.1059 31.596 26.3219 31.687 26.3939C32.028 26.6679 32.422 26.8209 32.988 26.7539C33.058 26.7539 33.117 26.6469 33.129 26.6179C33.165 26.5139 33.158 26.3809 33.092 26.2879C32.887 26.0159 32.096 25.8069 32.053 25.6689C32.021 25.5669 31.896 25.4319 32.034 25.3629C31.958 25.4059 32.521 25.3469 32.724 25.3029C32.99 25.2449 33.009 24.9829 33.192 24.8899C33.451 24.7529 33.831 24.8719 33.977 24.6299C34.062 24.4749 33.995 24.2489 34.078 24.1059C34.181 23.9229 34.49 23.8869 34.649 23.7419C34.695 23.6929 34.672 23.5309 34.661 23.4819ZM13.771 35.6369C13.668 35.5259 13.754 35.3049 13.942 35.2089C14.289 35.0449 14.433 35.2359 14.508 35.3259C14.844 35.8489 15.281 36.5269 15.605 36.7949C15.305 36.8259 14.188 36.4819 13.771 35.6369ZM16.629 40.8929C16.446 40.8929 15.289 39.9179 15.463 39.3129C15.806 39.5669 16.576 40.1059 16.672 40.0939C16.778 40.1539 16.86 40.8259 16.629 40.8929ZM17.974 40.8959C17.823 40.7629 16.703 39.5799 16.982 39.0309C17.289 39.3399 18.146 40.1269 18.452 40.2029C18.539 40.4279 18.526 41.0489 17.974 40.8959ZM18.095 36.3689C18.291 36.6659 18.56 36.8399 18.546 37.4729C18.527 37.6269 18.578 37.6569 18.706 37.6469C18.825 37.6139 18.76 36.8809 19.115 36.9299C19.416 36.9729 19.212 37.3929 19.361 37.8619C19.417 38.0319 19.757 38.6329 19.665 39.6669C19.657 39.9349 19.15 40.2799 18.861 40.0769C18.623 39.9339 18.623 39.7569 18.487 38.6649C18.428 38.0199 17.643 37.7979 17.31 37.5069C16.976 37.2589 17.166 37.1399 17.105 36.6909C16.913 36.0449 16.159 35.7419 16.411 35.3119C16.489 35.2049 16.565 35.1029 16.805 35.1929C16.818 35.5119 17.583 35.7619 18.095 36.3689ZM12.739 34.3299C12.719 34.3399 12.717 34.3439 12.746 34.3279C12.746 34.3279 12.742 34.3299 12.739 34.3299C12.816 34.2969 13.153 34.1389 13.24 34.1049C13.595 33.9799 13.785 34.1689 14.111 33.9879C14.189 33.9409 14.275 33.8159 14.346 33.7579C14.408 33.7029 14.52 33.7109 14.593 33.6579C14.774 33.5329 15.111 33.1459 15.344 33.1069C15.477 33.0799 15.477 33.1169 15.546 33.1229C15.546 33.1369 15.645 33.1029 15.619 33.3029C15.557 33.6859 16.461 33.2969 17.057 33.4399C17.461 33.5339 17.853 33.6719 17.749 33.9319C17.763 33.9049 17.631 34.0119 17.599 34.0319C17.321 34.2349 17.105 34.0119 16.965 33.9929C16.721 33.9659 16.549 34.0379 16.301 34.0089C16.301 34.0069 16.003 33.9069 16.003 33.9069C15.814 33.8989 15.542 33.9969 15.398 34.0089C15.125 34.0299 14.993 33.9329 14.747 33.9579C14.627 33.9739 14.434 34.1279 14.347 34.1589C14.267 34.1879 14.174 34.2159 14.096 34.2409C14.042 34.2529 13.907 34.3289 13.844 34.3559C13.596 34.4789 13.449 34.4789 13.142 34.5569L12.965 34.6079C12.583 34.6579 12.621 34.3959 12.739 34.3299ZM11.813 35.8139C12.223 35.7179 12.344 35.8259 12.539 36.2889C12.684 36.5639 12.989 36.9299 13.105 37.1049C12.634 37.1579 11.884 36.5149 11.673 36.1639C11.54 35.9879 11.744 35.8519 11.813 35.8139ZM6.60601 33.8629C7.14401 33.7149 7.62001 33.5559 7.82001 33.4429C7.89101 33.4389 7.96101 33.4389 8.03201 33.4329C8.06301 33.5759 8.11801 33.7219 8.20401 33.8669C8.22401 33.8979 8.24201 33.9239 8.25901 33.9489C7.93401 33.9569 7.27501 33.9159 6.60601 33.8629ZM7.72801 34.8069C8.00301 34.6389 8.26801 34.4609 8.52001 34.2779C8.63401 34.4109 8.76101 34.5359 8.89901 34.6549C8.75201 34.6929 8.29601 34.7499 7.72801 34.8069Z" fill="#910023"/>
<path d="M12.7389 34.3299C12.7419 34.3299 12.7459 34.3279 12.7459 34.3279C12.7159 34.3439 12.7189 34.3399 12.7389 34.3299Z" fill="#910023"/>
<path d="M62.512 33.654V35.796H52.918V33.654H56.392V32.106H59.146V33.654H62.512ZM55.996 39.594C55.996 39.9 56.14 40.17 56.356 40.386C56.68 40.656 57.148 40.818 57.724 40.818C58.318 40.818 58.786 40.656 59.092 40.386C59.326 40.17 59.47 39.9 59.47 39.594C59.47 39.288 59.326 39.018 59.092 38.802C58.786 38.532 58.318 38.388 57.724 38.388C57.148 38.388 56.68 38.532 56.356 38.802C56.14 39.018 55.996 39.288 55.996 39.594ZM53.386 39.594C53.386 38.694 53.746 37.92 54.394 37.344C55.15 36.696 56.284 36.3 57.724 36.3C59.182 36.3 60.316 36.696 61.072 37.344C61.72 37.92 62.08 38.694 62.08 39.594C62.08 40.494 61.72 41.268 61.072 41.844C60.316 42.51 59.182 42.888 57.724 42.888C56.284 42.888 55.15 42.51 54.394 41.844C53.746 41.268 53.386 40.494 53.386 39.594ZM64.042 32.592H66.778V36.57H69.064V38.928H66.778V42.834H64.042V32.592ZM54.124 45.876V43.572H66.778V49.476H64.042V45.876H54.124ZM74.0673 32.772V35.022H81.7713V32.772H84.5073V41.52H71.3133V32.772H74.0673ZM74.0673 39.234H81.7713V37.308H74.0673V39.234ZM76.5333 45.354H70.5033V43.032H85.3353V45.354H79.2693V49.476H76.5333V45.354ZM92.7506 48.126H88.2146V32.88H94.3706V35.166H90.7886V45.858H93.2006C94.3706 45.858 95.2346 45.678 95.7566 45.282V32.682H98.2946V38.91H99.4286V32.592H102.003V49.206H99.4286V41.232H98.2946V49.062H95.7566V47.478C95.2166 47.928 94.2266 48.126 92.7506 48.126ZM114.35 33.654V35.796H104.756V33.654H108.23V32.106H110.984V33.654H114.35ZM107.834 39.594C107.834 39.9 107.978 40.17 108.194 40.386C108.518 40.656 108.986 40.818 109.562 40.818C110.156 40.818 110.624 40.656 110.93 40.386C111.164 40.17 111.308 39.9 111.308 39.594C111.308 39.288 111.164 39.018 110.93 38.802C110.624 38.532 110.156 38.388 109.562 38.388C108.986 38.388 108.518 38.532 108.194 38.802C107.978 39.018 107.834 39.288 107.834 39.594ZM105.224 39.594C105.224 38.694 105.584 37.92 106.232 37.344C106.988 36.696 108.122 36.3 109.562 36.3C111.02 36.3 112.154 36.696 112.91 37.344C113.558 37.92 113.918 38.694 113.918 39.594C113.918 40.494 113.558 41.268 112.91 41.844C112.154 42.51 111.02 42.888 109.562 42.888C108.122 42.888 106.988 42.51 106.232 41.844C105.584 41.268 105.224 40.494 105.224 39.594ZM115.88 32.592H118.616V36.57H120.902V38.928H118.616V42.834H115.88V32.592ZM105.962 45.876V43.572H118.616V49.476H115.88V45.876H105.962Z" fill="#910023"/>
</g>
<defs>
<clipPath id="clip0_1718_10">
<rect width="157.75" height="55" fill="white"/>
</clipPath>
</defs>
</svg>
